<svg width="343" height="75" viewBox="0 0 343 75" fill="none" xmlns="http://www.w3.org/2000/svg">
<path d="M0 0H75V75H0V0Z" fill="#1E1E1E"/>
<path d="M3 2H73V67H3V2Z" fill="#1E1E1E"/>
<path d="M4 3V4.78282L23.6681 20.9758L16.4847 3H4ZM21.2185 3L30.7686 18.1967L30.3623 3.00012L21.2185 3ZM35.2576 3L38.4408 17.483L43.4191 3H35.2576ZM48.3143 3L46.0308 18.9068L58.6813 3H48.3143ZM63.166 3L52.8035 22.3346L71 10.2034V3H63.166ZM4 9.56206V19.8344L17.8732 25.5414L4 9.56206ZM71 15.2002L57.9432 27.3275L70.9999 23.331L71 15.2002ZM27.3756 22.4646C25.8497 22.4751 23.8595 23.7305 22.3276 25.8084C21.4221 27.0366 20.8313 28.3451 20.5808 29.5226C13.7281 32.2928 4.66375 37.3289 4.66375 37.3289L25.4061 52.7202L27.5022 61H47.6635L49.2444 53.1021L49.2575 53.1134L70.5326 37.3292C70.5326 37.3292 61.3053 32.2 54.4324 29.4464C54.1728 28.289 53.5888 27.01 52.7032 25.8087C51.1711 23.7308 49.1766 22.4754 47.6507 22.4647C47.142 22.4611 46.6856 22.5958 46.3148 22.8847C45.9766 23.1478 45.7395 23.5162 45.5985 23.9611C45.7736 24.1536 45.9456 24.3491 46.1094 24.5528C47.7373 26.5769 48.8452 29.1489 49.2493 32.0042C50.452 32.9545 51.7035 33.441 52.7032 33.321L60.332 37.7109L45.7164 44.7727C45.1477 45.4156 44.5186 45.9969 43.8386 46.5019C43.0595 45.9713 42.2969 45.5308 41.5416 45.1812C42.4258 44.6327 43.2475 43.901 43.974 42.9977C45.6928 40.8605 46.8079 37.8167 46.8079 34.4316C46.8079 31.0465 45.6928 28.0027 43.974 25.8656C42.2553 23.7284 40.0195 22.5291 37.6244 22.5291C35.2295 22.5291 32.994 23.7284 31.2752 25.8655C29.5565 28.0023 28.4414 31.0462 28.4414 34.4313C28.4414 37.8164 29.5565 40.8603 31.2752 42.9973C31.9097 43.7859 32.6139 44.4468 33.3713 44.9669C32.6014 45.2867 31.8244 45.7026 31.0394 46.2153C30.5078 45.785 30.0171 45.3177 29.5721 44.8179L14.8647 37.7102L22.4718 33.3318C23.5184 33.3945 24.8138 32.8322 26.0351 31.7934C26.4627 29.0226 27.5521 26.5262 29.1401 24.5522C29.2503 24.4152 29.3638 24.2802 29.4805 24.1474C29.3499 23.619 29.0959 23.1829 28.7119 22.8838C28.3409 22.5951 27.8842 22.4611 27.3756 22.4646ZM35.9126 29.6067C35.8163 30.1035 35.7682 30.6066 35.7687 31.1106C35.7687 31.3847 35.778 31.6493 35.8036 31.9083C34.2287 32.0233 32.7143 32.3216 31.3232 32.8055L30.3581 30.6871C32.1102 30.0776 33.9846 29.7205 35.9126 29.6067ZM39.856 29.7019C41.4723 29.87 43.0909 30.1948 44.6727 30.6678L43.8297 32.8247C42.5628 32.4456 41.2568 32.1745 39.9302 32.0154C39.9633 31.7147 39.9794 31.4128 39.9784 31.1107C39.9784 30.6166 39.9359 30.1417 39.856 29.7019ZM37.5503 34.7486C40.3822 34.7486 42.6815 36.7524 42.6815 39.2262C42.6815 41.7004 40.3822 43.7076 37.5503 43.7076C34.7184 43.7076 32.4236 41.7002 32.4236 39.2263C32.4236 36.7525 34.7184 34.7486 37.5503 34.7486Z" fill="url(#paint0_linear_258_296)"/>
<path d="M27.546 73V65.062H27.28L27.476 63.2H31.48L31.368 65.062H29.45V67.162H31.172L31.06 69.024H29.45V73H27.546Z" fill="white"/>
<path d="M32.2355 73V65.062H31.9695L32.1655 63.2H36.1695L36.0575 65.062H34.1395V67.162H35.8615L35.7495 69.024H34.1395V71.138H36.1695L36.0575 73H32.2355Z" fill="white"/>
<path d="M36.6589 73L37.8209 65.062H37.5269L37.7229 63.2H40.9849L42.4269 73H40.5369L40.3269 71.6H38.7589L38.5489 73H36.6589ZM39.0249 69.738H40.0609L39.5429 66.238L39.0249 69.738Z" fill="white"/>
<path d="M43.185 73V65.062H42.919L43.115 63.2H45.677C46.3956 63.2 46.909 63.3587 47.217 63.676C47.5343 63.984 47.693 64.4927 47.693 65.202V68.394C47.693 69.1127 47.539 69.626 47.231 69.934L48.099 73H46.195L45.467 70.396H45.089V73H43.185ZM45.719 65.062H45.089V68.534H45.719C45.7656 68.534 45.789 68.5107 45.789 68.464V65.132C45.789 65.0853 45.7656 65.062 45.719 65.062Z" fill="white"/>
<path d="M90 0H164V75H90V0Z" fill="#1E1E1E"/>
<path d="M92 2H162V67H92V2Z" fill="#1E1E1E"/>
<path d="M114.314 20.5C116.236 20.5 118.08 19.7888 119.44 18.523C120.8 17.2571 121.563 15.5402 121.563 13.75C121.563 11.9598 120.8 10.2429 119.44 8.97703C118.08 7.71116 116.236 7 114.314 7C112.391 7 110.547 7.71116 109.187 8.97703C107.828 10.2429 107.064 11.9598 107.064 13.75C107.064 15.5402 107.828 17.2571 109.187 18.523C110.547 19.7888 112.391 20.5 114.314 20.5ZM113.407 57.625V44.125H115.22V57.625C115.22 59.4918 116.84 61 118.845 61C120.85 61 122.47 59.4918 122.47 57.625V38.6934L123.931 40.8555C124.996 42.4375 127.239 42.9016 128.926 41.9102C130.614 40.9188 131.124 38.8305 130.059 37.259L124.203 28.6C122.209 25.6574 118.731 23.8645 115.005 23.8645H113.611C109.873 23.8645 106.395 25.6469 104.413 28.6L98.5565 37.2695C97.4917 38.8516 98.0014 40.9293 99.6893 41.9207C101.377 42.9121 103.62 42.4375 104.685 40.866L106.157 38.6934V57.625C106.157 59.4918 107.777 61 109.782 61C111.787 61 113.407 59.4918 113.407 57.625ZM145.125 7H141.5C140.504 7 139.688 7.75938 139.688 8.6875C139.688 9.61563 140.504 10.375 141.5 10.375V20.9535C140.413 21.5336 139.688 22.6305 139.688 23.875V27.25C137.683 27.25 136.063 28.7582 136.063 30.625V45.8125C136.063 47.6793 137.683 49.1875 139.688 49.1875H141.5V59.3125C141.5 60.2406 142.316 61 143.313 61H150.053C151.231 61 152.092 59.9664 151.809 58.9012L149.203 49.1875H154.188C155.184 49.1875 156 48.4281 156 47.5V45.8125C156 44.8844 155.184 44.125 154.188 44.125H148.75V41.309L154.765 39.4422C155.502 39.2102 156 38.5668 156 37.8391V28.9375C156 28.0094 155.184 27.25 154.188 27.25H152.375C151.378 27.25 150.563 28.0094 150.563 28.9375V34.8438L148.75 35.4027V23.875C148.75 22.6305 148.025 21.5336 146.938 20.9535V8.6875C146.938 7.75938 146.122 7 145.125 7Z" fill="url(#paint1_linear_258_296)"/>
<path d="M108.722 73L107.28 63.2H109.17L110.164 70.172L111.158 63.2H113.048L111.606 73H108.722Z" fill="white"/>
<path d="M113.739 73V65.062H113.473L113.669 63.2H115.643V73H113.739Z" fill="white"/>
<path d="M120.924 71.054C120.924 71.7633 120.765 72.2767 120.448 72.594C120.14 72.902 119.627 73.056 118.908 73.056H118.292C117.573 73.056 117.055 72.902 116.738 72.594C116.43 72.2767 116.276 71.7633 116.276 71.054V65.146C116.276 64.4273 116.43 63.914 116.738 63.606C117.055 63.298 117.573 63.144 118.292 63.144H118.908C119.627 63.144 120.14 63.298 120.448 63.606C120.765 63.914 120.924 64.4273 120.924 65.146V71.054ZM118.25 65.006C118.203 65.006 118.18 65.0293 118.18 65.076V71.124C118.18 71.1707 118.203 71.194 118.25 71.194H118.95C118.997 71.194 119.02 71.1707 119.02 71.124V65.076C119.02 65.0293 118.997 65.006 118.95 65.006H118.25Z" fill="white"/>
<path d="M121.751 73.014V65.076H121.485L121.681 63.214H123.655V71.138H126.329L126.217 73H123.655V73.014H121.751Z" fill="white"/>
<path d="M126.946 73V65.062H126.68L126.876 63.2H130.88L130.768 65.062H128.85V67.162H130.572L130.46 69.024H128.85V71.138H130.88L130.768 73H126.946Z" fill="white"/>
<path d="M131.704 73V65.062H131.438L131.634 63.2H133.608L135.204 68.52V63.2H137.108V73H135.204L133.608 67.68V73H131.704Z" fill="white"/>
<path d="M142.321 68.94V71.11C142.321 71.8193 142.162 72.3327 141.845 72.65C141.537 72.958 141.023 73.112 140.305 73.112H139.689C138.97 73.112 138.452 72.958 138.135 72.65C137.827 72.3327 137.673 71.8193 137.673 71.11V65.09C137.673 64.3713 137.827 63.858 138.135 63.55C138.452 63.242 138.97 63.088 139.689 63.088H140.305C141.023 63.088 141.537 63.242 141.845 63.55C142.162 63.858 142.321 64.3713 142.321 65.09V67.4L140.417 67.19V65.02C140.417 64.9733 140.393 64.95 140.347 64.95H139.647C139.6 64.95 139.577 64.9733 139.577 65.02V71.18C139.577 71.2267 139.6 71.25 139.647 71.25H140.347C140.393 71.25 140.417 71.2267 140.417 71.18V68.94H142.321Z" fill="white"/>
<path d="M143.148 73V65.062H142.882L143.078 63.2H147.082L146.97 65.062H145.052V67.162H146.774L146.662 69.024H145.052V71.138H147.082L146.97 73H143.148Z" fill="white"/>
<path d="M269 0H343V75H269V0Z" fill="#1E1E1E"/>
<path d="M271 2H341V67H271V2Z" fill="#1E1E1E"/>
<path d="M273.476 73V65.062H273.21L273.406 63.2H276.08C276.799 63.2 277.312 63.3587 277.62 63.676C277.937 63.984 278.096 64.4927 278.096 65.202V67.036C278.096 67.316 278.073 67.5633 278.026 67.778C278.259 68.086 278.376 68.5527 278.376 69.178V70.998C278.376 71.7073 278.217 72.2207 277.9 72.538C277.592 72.846 277.079 73 276.36 73H273.476ZM276.122 67.176C276.169 67.176 276.192 67.1527 276.192 67.106V65.132C276.192 65.0853 276.169 65.062 276.122 65.062H275.38V67.176H276.122ZM276.472 69.108C276.472 69.0613 276.449 69.038 276.402 69.038H275.38V71.138H276.402C276.449 71.138 276.472 71.1147 276.472 71.068V69.108Z" fill="white"/>
<path d="M278.872 73L280.034 65.062H279.74L279.936 63.2H283.198L284.64 73H282.75L282.54 71.6H280.972L280.762 73H278.872ZM281.238 69.738H282.274L281.756 66.238L281.238 69.738Z" fill="white"/>
<path d="M290.048 70.998C290.048 71.7073 289.889 72.2207 289.572 72.538C289.264 72.846 288.75 73 288.032 73H285.4V65.062H285.134L285.33 63.2H288.032C288.75 63.2 289.264 63.354 289.572 63.662C289.889 63.97 290.048 64.4833 290.048 65.202V70.998ZM288.074 71.138C288.12 71.138 288.144 71.1147 288.144 71.068V65.132C288.144 65.0853 288.12 65.062 288.074 65.062H287.304V71.138H288.074Z" fill="white"/>
<path d="M293.384 73.014V65.076H293.118L293.314 63.214H295.288V71.138H297.962L297.85 73H295.288V73.014H293.384Z" fill="white"/>
<path d="M298.518 73L299.68 65.062H299.386L299.582 63.2H302.844L304.286 73H302.396L302.186 71.6H300.618L300.408 73H298.518ZM300.884 69.738H301.92L301.402 66.238L300.884 69.738Z" fill="white"/>
<path d="M304.978 73V65.062H304.712L304.908 63.2H306.882L308.478 68.52V63.2H310.382V73H308.478L306.882 67.68V73H304.978Z" fill="white"/>
<path d="M313.407 69.038L313.519 67.176H315.871V71.054C315.871 71.7633 315.712 72.2767 315.395 72.594C315.087 72.902 314.573 73.056 313.855 73.056H313.099C312.38 73.056 311.862 72.902 311.545 72.594C311.237 72.2767 311.083 71.7633 311.083 71.054V65.146C311.083 64.4273 311.237 63.914 311.545 63.606C311.862 63.298 312.38 63.144 313.099 63.144H313.855C314.573 63.144 315.087 63.298 315.395 63.606C315.712 63.914 315.871 64.4273 315.871 65.146V66.532L313.967 66.322V65.076C313.967 65.0293 313.943 65.006 313.897 65.006H313.057C313.01 65.006 312.987 65.0293 312.987 65.076V71.124C312.987 71.1707 313.01 71.194 313.057 71.194H313.897C313.943 71.194 313.967 71.1707 313.967 71.124V69.038H313.407Z" fill="white"/>
<path d="M321.481 71.054C321.481 71.7633 321.322 72.2767 321.005 72.594C320.697 72.902 320.183 73.056 319.465 73.056H318.709C317.99 73.056 317.472 72.902 317.155 72.594C316.847 72.2767 316.693 71.7633 316.693 71.054V65.062H316.427L316.623 63.2H318.597V71.124C318.597 71.1707 318.62 71.194 318.667 71.194H319.507C319.553 71.194 319.577 71.1707 319.577 71.124V63.2H321.481V71.054Z" fill="white"/>
<path d="M321.966 73L323.128 65.062H322.834L323.03 63.2H326.292L327.734 73H325.844L325.634 71.6H324.066L323.856 73H321.966ZM324.332 69.738H325.368L324.85 66.238L324.332 69.738Z" fill="white"/>
<path d="M330.483 69.038L330.595 67.176H332.947V71.054C332.947 71.7633 332.788 72.2767 332.471 72.594C332.163 72.902 331.65 73.056 330.931 73.056H330.175C329.456 73.056 328.938 72.902 328.621 72.594C328.313 72.2767 328.159 71.7633 328.159 71.054V65.146C328.159 64.4273 328.313 63.914 328.621 63.606C328.938 63.298 329.456 63.144 330.175 63.144H330.931C331.65 63.144 332.163 63.298 332.471 63.606C332.788 63.914 332.947 64.4273 332.947 65.146V66.532L331.043 66.322V65.076C331.043 65.0293 331.02 65.006 330.973 65.006H330.133C330.086 65.006 330.063 65.0293 330.063 65.076V71.124C330.063 71.1707 330.086 71.194 330.133 71.194H330.973C331.02 71.194 331.043 71.1707 331.043 71.124V69.038H330.483Z" fill="white"/>
<path d="M333.771 73V65.062H333.505L333.701 63.2H337.705L337.593 65.062H335.675V67.162H337.397L337.285 69.024H335.675V71.138H337.705L337.593 73H333.771Z" fill="white"/>
<path d="M336 28.9277C336 38.829 322.569 46.8555 306 46.8555C289.431 46.8555 276 38.829 276 28.9277C276 19.0265 289.431 11 306 11C322.569 11 336 19.0265 336 28.9277Z" fill="url(#paint2_linear_258_296)"/>
<path d="M285.637 57L286.399 42.5L291.5 44.6261L297 46L285.637 57Z" fill="url(#paint3_linear_258_296)"/>
<path d="M295.2 25.5H297.92V28.7H298.24C298.307 28.7 298.34 28.6667 298.34 28.6V27.86L298.32 24.98C298.32 24.9133 298.287 24.88 298.22 24.88H290.98C290.913 24.88 290.88 24.9133 290.88 24.98V32.44C290.88 32.5067 290.913 32.54 290.98 32.54H298.24C298.307 32.54 298.34 32.5067 298.34 32.44V31.66H300.78V33.14C300.78 33.7 300.607 34.1533 300.26 34.5C299.913 34.8333 299.46 35 298.9 35H290.28C289.72 35 289.267 34.8533 288.92 34.56C288.573 34.2667 288.4 33.88 288.4 33.4V24.28C288.4 23.72 288.573 23.2733 288.92 22.94C289.267 22.5933 289.72 22.42 290.28 22.42H298.92C299.48 22.42 299.933 22.5933 300.28 22.94C300.627 23.2733 300.8 23.72 300.8 24.28L300.78 27.42H300.8V28.5C300.8 29.4067 300.62 30.1133 300.26 30.62C299.913 31.1133 299.34 31.36 298.54 31.36H298.5L297.92 30.5V32.1H295.2V31.04L294.48 32.1H294.16C293.133 32.1 292.393 31.88 291.94 31.44C291.5 30.9867 291.28 30.2533 291.28 29.24V28.36C291.28 27.3333 291.5 26.6 291.94 26.16C292.38 25.72 293.127 25.5 294.18 25.5C294.567 25.5 294.907 25.5667 295.2 25.7V25.5ZM294.1 28.16C294.033 28.16 294 28.1933 294 28.26V29.34C294 29.4067 294.033 29.44 294.1 29.44H295.2V28.16H294.1Z" fill="#1E1E1E"/>
<path d="M302.943 35L303.123 32.24H301.603V29.78H303.283L303.363 28.48H302.003V26.02H303.523L303.723 23H305.983L305.783 26.02H306.783L306.983 23H309.243L309.043 26.02H310.403V28.48H308.883L308.783 29.78H310.003V32.24H308.623L308.443 35H306.203L306.383 32.24H305.363L305.183 35H302.943ZM305.523 29.78H306.543L306.623 28.48H305.623L305.523 29.78Z" fill="#1E1E1E"/>
<path d="M312.553 35L312.732 32.24H311.213V29.78H312.893L312.972 28.48H311.612V26.02H313.132L313.333 23H315.592L315.393 26.02H316.393L316.592 23H318.853L318.653 26.02H320.013V28.48H318.493L318.393 29.78H319.612V32.24H318.233L318.053 35H315.812L315.993 32.24H314.972L314.792 35H312.553ZM315.132 29.78H316.153L316.233 28.48H315.233L315.132 29.78Z" fill="#1E1E1E"/>
<path d="M320.822 31.58V23H323.082V31.58H320.822ZM320.822 35V32.28H323.082V35H320.822Z" fill="#1E1E1E"/>
<path d="M179 0H254V75H179V0Z" fill="#1E1E1E"/>
<path d="M182 2H252V67H182V2Z" fill="#1E1E1E"/>
<path d="M228.926 13.525C226.414 11.175 223.148 10 220.133 10C217.118 10 213.601 11.175 211.34 13.525L196.768 26.685C191.744 31.385 191.744 38.67 196.768 43.37C201.793 48.07 209.581 48.07 214.606 43.37L228.926 29.975C233.7 25.51 233.7 17.99 228.926 13.525ZM225.409 26.685L218.374 33.265L209.33 25.04L198.276 35.38C198.276 33.5 198.778 31.385 200.537 29.975L214.857 16.58C216.113 15.405 218.123 14.7 219.882 14.7C221.64 14.7 223.65 15.405 225.158 16.58C228.172 19.635 228.172 23.865 225.409 26.685ZM237.468 21.985C237.468 23.865 236.966 25.51 236.463 27.39C238.975 30.21 238.975 34.44 236.212 37.025L229.177 43.605L225.409 40.08L218.374 46.66C215.108 49.715 210.586 51.36 206.315 51.36C206.818 52.065 207.32 52.77 208.074 53.475C213.099 58.175 220.887 58.175 225.911 53.475L240.232 40.08C245.256 35.38 245.256 28.095 240.232 23.395C238.975 22.925 238.222 22.455 237.468 21.985Z" fill="url(#paint4_linear_258_296)"/>
<path d="M208.194 70.998C208.194 71.7073 208.035 72.2207 207.718 72.538C207.41 72.846 206.897 73 206.178 73H203.546V65.062H203.28L203.476 63.2H206.178C206.897 63.2 207.41 63.354 207.718 63.662C208.035 63.97 208.194 64.4833 208.194 65.202V70.998ZM206.22 71.138C206.267 71.138 206.29 71.1147 206.29 71.068V65.132C206.29 65.0853 206.267 65.062 206.22 65.062H205.45V71.138H206.22Z" fill="white"/>
<path d="M208.945 73V65.062H208.679L208.875 63.2H211.437C212.155 63.2 212.669 63.3587 212.977 63.676C213.294 63.984 213.453 64.4927 213.453 65.202V68.394C213.453 69.1127 213.299 69.626 212.991 69.934L213.859 73H211.955L211.227 70.396H210.849V73H208.945ZM211.479 65.062H210.849V68.534H211.479C211.525 68.534 211.549 68.5107 211.549 68.464V65.132C211.549 65.0853 211.525 65.062 211.479 65.062Z" fill="white"/>
<path d="M219.065 71.054C219.065 71.7633 218.906 72.2767 218.589 72.594C218.281 72.902 217.767 73.056 217.049 73.056H216.293C215.574 73.056 215.056 72.902 214.739 72.594C214.431 72.2767 214.277 71.7633 214.277 71.054V65.062H214.011L214.207 63.2H216.181V71.124C216.181 71.1707 216.204 71.194 216.251 71.194H217.091C217.137 71.194 217.161 71.1707 217.161 71.124V63.2H219.065V71.054Z" fill="white"/>
<path d="M222.01 69.038L222.122 67.176H224.474V71.054C224.474 71.7633 224.316 72.2767 223.998 72.594C223.69 72.902 223.177 73.056 222.458 73.056H221.702C220.984 73.056 220.466 72.902 220.148 72.594C219.84 72.2767 219.686 71.7633 219.686 71.054V65.146C219.686 64.4273 219.84 63.914 220.148 63.606C220.466 63.298 220.984 63.144 221.702 63.144H222.458C223.177 63.144 223.69 63.298 223.998 63.606C224.316 63.914 224.474 64.4273 224.474 65.146V66.532L222.57 66.322V65.076C222.57 65.0293 222.547 65.006 222.5 65.006H221.66C221.614 65.006 221.59 65.0293 221.59 65.076V71.124C221.59 71.1707 221.614 71.194 221.66 71.194H222.5C222.547 71.194 222.57 71.1707 222.57 71.124V69.038H222.01Z" fill="white"/>
<path d="M227.003 69.92V71.18C227.003 71.2267 227.026 71.25 227.073 71.25H227.479C227.525 71.25 227.549 71.2267 227.549 71.18L227.563 69.318L225.981 68.632C225.626 68.4733 225.388 68.31 225.267 68.142C225.155 67.974 225.099 67.7173 225.099 67.372V65.09C225.099 64.3713 225.253 63.858 225.561 63.55C225.869 63.242 226.368 63.088 227.059 63.088H227.647C228.3 63.116 228.767 63.2887 229.047 63.606C229.327 63.914 229.467 64.4087 229.467 65.09V66.84L227.563 66.63V65.02C227.563 64.9733 227.539 64.95 227.493 64.95H227.073C227.026 64.95 227.003 64.9733 227.003 65.02V67.078L228.585 67.764C228.939 67.9133 229.173 68.0767 229.285 68.254C229.406 68.422 229.467 68.6787 229.467 69.024V71.11C229.467 71.7913 229.327 72.2907 229.047 72.608C228.767 72.916 228.3 73.084 227.647 73.112H227.087C226.377 73.112 225.869 72.958 225.561 72.65C225.253 72.3327 225.099 71.8193 225.099 71.11V69.92H227.003Z" fill="white"/>
<defs>
<linearGradient id="paint0_linear_258_296" x1="37.5" y1="0" x2="37.5" y2="75" gradientUnits="userSpaceOnUse">
<stop stop-color="#D9D9D9"/>
<stop offset="1" stop-color="#D9D9D9" stop-opacity="0.56"/>
</linearGradient>
<linearGradient id="paint1_linear_258_296" x1="127" y1="0" x2="127" y2="75" gradientUnits="userSpaceOnUse">
<stop stop-color="#D9D9D9"/>
<stop offset="1" stop-color="#D9D9D9" stop-opacity="0.56"/>
</linearGradient>
<linearGradient id="paint2_linear_258_296" x1="306" y1="0" x2="306" y2="75" gradientUnits="userSpaceOnUse">
<stop stop-color="#D9D9D9"/>
<stop offset="1" stop-color="#D9D9D9" stop-opacity="0.56"/>
</linearGradient>
<linearGradient id="paint3_linear_258_296" x1="306" y1="0" x2="306" y2="75" gradientUnits="userSpaceOnUse">
<stop stop-color="#D9D9D9"/>
<stop offset="1" stop-color="#D9D9D9" stop-opacity="0.56"/>
</linearGradient>
<linearGradient id="paint4_linear_258_296" x1="216.5" y1="0" x2="216.5" y2="75" gradientUnits="userSpaceOnUse">
<stop stop-color="#D9D9D9"/>
<stop offset="1" stop-color="#D9D9D9" stop-opacity="0.56"/>
</linearGradient>
</defs>
</svg>
