<svg width="22" height="22" viewBox="0 0 22 22" fill="none" xmlns="http://www.w3.org/2000/svg">
<path d="M19 9.99998C19 8.21905 18.4716 6.47817 17.4818 4.99767C16.4919 3.51718 15.085 2.36364 13.4393 1.68307C11.7935 1.00251 9.98285 0.825507 8.23645 1.17448C6.49005 1.52345 4.88645 2.38271 3.62861 3.64348C2.37078 4.90426 1.51528 6.50986 1.17038 8.25707C0.825492 10.0043 1.00672 11.8145 1.69113 13.4587C2.37554 15.1029 3.53236 16.507 5.01516 17.4934C6.49797 18.4798 8.24008 19.0041 10.021 19M1.6 6.99998H18.4M1.6 13H10.5" stroke="#CCCCCC" stroke-width="2" stroke-linecap="round" stroke-linejoin="round"/>
<path d="M9.49991 1C7.81525 3.69961 6.92212 6.81787 6.92212 10C6.92212 13.1821 7.81525 16.3004 9.49991 19M10.4999 1C12.4337 4.0978 13.3181 7.73619 13.0219 11.376M17.0009 19C16.4705 19 15.9618 18.7893 15.5867 18.4142C15.2116 18.0391 15.0009 17.5304 15.0009 17C15.0009 16.4696 15.2116 15.9609 15.5867 15.5858C15.9618 15.2107 16.4705 15 17.0009 15M17.0009 19C17.5313 19 18.0401 18.7893 18.4151 18.4142C18.7902 18.0391 19.0009 17.5304 19.0009 17C19.0009 16.4696 18.7902 15.9609 18.4151 15.5858C18.0401 15.2107 17.5313 15 17.0009 15M17.0009 19V20.5M17.0009 15V13.5M20.0319 15.25L18.7329 16M15.2699 18L13.9699 18.75M13.9699 15.25L15.2699 16M18.7329 18L20.0329 18.75" stroke="#CCCCCC" stroke-width="2" stroke-linecap="round" stroke-linejoin="round"/>
</svg>
