<svg width="21" height="16" viewBox="0 0 21 16" fill="none" xmlns="http://www.w3.org/2000/svg">
<path d="M21 0V4.21053C21 5.48928 20.7724 6.84601 20.3173 8.2807C19.8464 9.73099 19.1715 11.1267 18.2926 12.4678C17.398 13.8246 16.3229 15.002 15.0673 16L12.0538 13.5673C13.0426 12.1637 13.9058 10.6979 14.6435 9.16959C15.3655 7.65692 15.7265 6.03509 15.7265 4.3041V0H21ZM8.94619 0V4.21053C8.94619 5.48928 8.71861 6.84601 8.26345 8.2807C7.7926 9.73099 7.11771 11.1267 6.23879 12.4678C5.34417 13.8246 4.26906 15.002 3.01345 16L0 13.5673C0.988791 12.1637 1.85202 10.6979 2.58969 9.16959C3.31166 7.65692 3.67265 6.03509 3.67265 4.3041V0H8.94619Z" fill="white" fill-opacity="0.25"/>
</svg>
